<svg width="20.000000" height="20.000000" viewBox="0 0 20 20" fill="none" xmlns="http://www.w3.org/2000/svg" xmlns:xlink="http://www.w3.org/1999/xlink">
	<desc>
			Created with Pixso.
	</desc>
	<defs>
		<clipPath id="clip1_30">
			<rect id="Frame" width="20.000000" height="20.000000" fill="white" fill-opacity="0"/>
		</clipPath>
	</defs>
	<rect id="Frame" width="20.000000" height="20.000000" fill="#FFFFFF" fill-opacity="0"/>
	<g clip-path="url(#clip1_30)">
		<path id="Vector" d="M16.2883 14.9617C16.4644 15.1378 16.5632 15.3767 16.5632 15.6258C16.5632 15.8749 16.4644 16.1137 16.2883 16.2898C16.1121 16.466 15.8733 16.5649 15.6243 16.5649C15.375 16.5649 15.1362 16.466 14.9602 16.2898L10 11.3281L5.03833 16.2883C4.86206 16.4644 4.62329 16.5633 4.37427 16.5633C4.125 16.5633 3.88623 16.4644 3.71021 16.2883C3.53394 16.1122 3.43506 15.8733 3.43506 15.6242C3.43506 15.3751 3.53394 15.1363 3.71021 14.9602L8.67188 10L3.71167 5.03828C3.53564 4.86216 3.43652 4.62329 3.43652 4.37422C3.43652 4.12515 3.53564 3.88628 3.71167 3.71016C3.8877 3.53404 4.12671 3.43509 4.37573 3.43509C4.62476 3.43509 4.86377 3.53404 5.03979 3.71016L10 8.67188L14.9617 3.70938C15.1377 3.53325 15.3767 3.43431 15.6257 3.43431C15.8748 3.43431 16.1138 3.53325 16.2898 3.70938C16.4658 3.8855 16.5649 4.12437 16.5649 4.37344C16.5649 4.62251 16.4658 4.86138 16.2898 5.0375L11.3281 10L16.2883 14.9617Z" fill="#FFFFFF" fill-opacity="1.000000" fill-rule="nonzero"/>
	</g>
</svg>
