<svg width="139.000000" height="24.712433" viewBox="0 0 139 24.7124" fill="none" xmlns="http://www.w3.org/2000/svg" xmlns:xlink="http://www.w3.org/1999/xlink">
	<desc>
			Created with Pixso.
	</desc>
	<defs/>
	<path id="Star 1" d="M12.3562 0L8.85547 7.53796L0.604736 8.53793L6.69189 14.1966L5.09351 22.3526L12.3562 18.3119L19.6191 22.3526L18.0205 14.1966L24.1077 8.53793L15.8569 7.53796L12.3562 0Z" fill="#FFC633" fill-opacity="1.000000" fill-rule="evenodd"/>
	<path id="Star 2" d="M44.1682 0L40.6675 7.53796L32.4167 8.53793L38.5039 14.1966L36.9055 22.3526L44.1682 18.3119L51.4312 22.3526L49.8325 14.1966L55.9197 8.53793L47.6689 7.53796L44.1682 0Z" fill="#FFC633" fill-opacity="1.000000" fill-rule="evenodd"/>
	<path id="Star 3" d="M75.9805 0L72.4797 7.53796L64.229 8.53793L70.3162 14.1966L68.7178 22.3526L75.9805 18.3119L83.2432 22.3526L81.6448 14.1966L87.7319 8.53793L79.4812 7.53796L75.9805 0Z" fill="#FFC633" fill-opacity="1.000000" fill-rule="evenodd"/>
	<path id="Star 4" d="M107.793 0L104.292 7.53796L96.0413 8.53793L102.128 14.1966L100.53 22.3526L107.793 18.3119L115.056 22.3526L113.457 14.1966L119.544 8.53793L111.293 7.53796L107.793 0Z" fill="#FFC633" fill-opacity="1.000000" fill-rule="evenodd"/>
	<path id="Star 5" d="M139 18.3119L131.737 22.3526L133.336 14.1966L127.249 8.53793L135.499 7.53796L139 0L139 18.3119Z" fill="#FFC633" fill-opacity="1.000000" fill-rule="evenodd"/>
</svg>
