<svg width="109.776367" height="22.578979" viewBox="0 0 109.776 22.579" fill="none" xmlns="http://www.w3.org/2000/svg" xmlns:xlink="http://www.w3.org/1999/xlink">
	<desc>
			Created with Pixso.
	</desc>
	<defs/>
	<path id="Star 1" d="M11.2896 0L8.09106 6.88721L0.55249 7.8009L6.11426 12.9711L4.65381 20.4229L11.2896 16.7311L17.9253 20.4229L16.4646 12.9711L22.0264 7.8009L14.488 6.88721L11.2896 0Z" fill="#FFC633" fill-opacity="1.000000" fill-rule="evenodd"/>
	<path id="Star 2" d="M40.3552 0L37.1567 6.88721L29.6182 7.8009L35.1799 12.9711L33.7195 20.4229L40.3552 16.7311L46.991 20.4229L45.5303 12.9711L51.092 7.8009L43.5537 6.88721L40.3552 0Z" fill="#FFC633" fill-opacity="1.000000" fill-rule="evenodd"/>
	<path id="Star 3" d="M69.4211 0L66.2227 6.88721L58.6841 7.8009L64.2458 12.9711L62.7854 20.4229L69.4211 16.7311L76.0569 20.4229L74.5962 12.9711L80.158 7.8009L72.6196 6.88721L69.4211 0Z" fill="#FFC633" fill-opacity="1.000000" fill-rule="evenodd"/>
	<path id="Star 4" d="M98.4868 0L95.2883 6.88721L87.7498 7.8009L93.3115 12.9711L91.8511 20.4229L98.4868 16.7311L105.123 20.4229L103.662 12.9711L109.224 7.8009L101.685 6.88721L98.4868 0Z" fill="#FFC633" fill-opacity="1.000000" fill-rule="evenodd"/>
</svg>
