<svg width="16.000000" height="16.000000" viewBox="0 0 16 16" fill="none" xmlns="http://www.w3.org/2000/svg" xmlns:xlink="http://www.w3.org/1999/xlink">
	<desc>
			Created with Pixso.
	</desc>
	<defs>
		<clipPath id="clip1_19">
			<rect id="Frame" width="16.000000" height="16.000000" fill="white" fill-opacity="0"/>
		</clipPath>
	</defs>
	<rect id="Frame" width="16.000000" height="16.000000" fill="#FFFFFF" fill-opacity="0"/>
	<g clip-path="url(#clip1_19)">
		<path id="Vector" d="M13.5305 6.53062L8.53052 11.5306C8.46094 11.6005 8.37817 11.656 8.28687 11.6939C8.1958 11.7317 8.09814 11.7512 7.99927 11.7512C7.90063 11.7512 7.80298 11.7317 7.71167 11.6939C7.62061 11.656 7.53784 11.6005 7.46802 11.5306L2.46802 6.53062C2.32715 6.38973 2.24805 6.19863 2.24805 5.99937C2.24805 5.80012 2.32715 5.60902 2.46802 5.46812C2.60889 5.32723 2.80005 5.24808 2.99927 5.24808C3.19849 5.24808 3.38965 5.32723 3.53052 5.46812L8 9.9375L12.4692 5.46751C12.6104 5.32661 12.8013 5.24745 13.0005 5.24745C13.2 5.24745 13.3909 5.32661 13.5317 5.46751C13.6729 5.6084 13.752 5.79949 13.752 5.99876C13.752 6.19801 13.6729 6.38911 13.5317 6.53001L13.5305 6.53062Z" fill="#000000" fill-opacity="1.000000" fill-rule="nonzero"/>
	</g>
</svg>
