<svg width="24.000000" height="24.000000" viewBox="0 0 24 24" fill="none" xmlns="http://www.w3.org/2000/svg" xmlns:xlink="http://www.w3.org/1999/xlink">
	<desc>
			Created with Pixso.
	</desc>
	<defs>
		<clipPath id="clip4_135">
			<rect id="Frame" width="24.000000" height="24.000000" fill="white" fill-opacity="0"/>
		</clipPath>
	</defs>
	<rect id="Frame" width="24.000000" height="24.000000" fill="#FFFFFF" fill-opacity="0"/>
	<g clip-path="url(#clip4_135)">
		<path id="Vector" d="M21.375 12C21.375 12.2983 21.2566 12.5845 21.0454 12.7955C20.8345 13.0065 20.5483 13.125 20.25 13.125L3.75 13.125C3.45166 13.125 3.16553 13.0065 2.95459 12.7955C2.74341 12.5845 2.625 12.2983 2.625 12C2.625 11.7017 2.74341 11.4155 2.95459 11.2045C3.16553 10.9935 3.45166 10.875 3.75 10.875L20.25 10.875C20.5483 10.875 20.8345 10.9935 21.0454 11.2045C21.2566 11.4155 21.375 11.7017 21.375 12Z" fill="#000000" fill-opacity="1.000000" fill-rule="nonzero"/>
	</g>
</svg>
