<svg width="37.000000" height="37.000000" viewBox="0 0 37 37" fill="none" xmlns="http://www.w3.org/2000/svg" xmlns:xlink="http://www.w3.org/1999/xlink">
	<desc>
			Created with Pixso.
	</desc>
	<defs>
		<clipPath id="clip4_106">
			<rect id="Frame" width="16.000000" height="16.000000" transform="translate(10.000000 10.000000)" fill="white" fill-opacity="0"/>
		</clipPath>
	</defs>
	<circle id="Ellipse 1" cx="18.500000" cy="18.500000" r="18.500000" fill="#4F4631" fill-opacity="1.000000"/>
	<rect id="Frame" width="16.000000" height="16.000000" transform="translate(10.000000 10.000000)" fill="#FFFFFF" fill-opacity="0"/>
	<g clip-path="url(#clip4_106)">
		<path id="Vector" d="M24.5305 15.0306L16.5305 23.0306C16.4609 23.1006 16.3782 23.156 16.2869 23.1939C16.1958 23.2318 16.0981 23.2512 15.9993 23.2512C15.9006 23.2512 15.803 23.2318 15.7117 23.1939C15.6206 23.156 15.5378 23.1006 15.468 23.0306L11.968 19.5306C11.8984 19.4609 11.843 19.3781 11.8052 19.2869C11.7676 19.1957 11.748 19.0981 11.748 18.9994C11.748 18.9007 11.7676 18.803 11.8052 18.7119C11.843 18.6207 11.8984 18.5379 11.968 18.4681C12.0378 18.3984 12.1206 18.343 12.2119 18.3053C12.303 18.2675 12.4006 18.2481 12.4993 18.2481C12.5979 18.2481 12.6958 18.2675 12.7869 18.3053C12.8779 18.343 12.9609 18.3984 13.0305 18.4681L16 21.4375L23.4692 13.9694C23.6104 13.8285 23.8013 13.7493 24.0005 13.7493C24.2 13.7493 24.3909 13.8285 24.5317 13.9694C24.6729 14.1103 24.752 14.3014 24.752 14.5006C24.752 14.6999 24.6729 14.891 24.5317 15.0319L24.5305 15.0306Z" fill="#FFFFFF" fill-opacity="1.000000" fill-rule="nonzero"/>
	</g>
</svg>
