<svg width="158.307861" height="23.893547" viewBox="0 0 158.308 23.8935" fill="none" xmlns="http://www.w3.org/2000/svg" xmlns:xlink="http://www.w3.org/1999/xlink">
	<desc>
			Created with Pixso.
	</desc>
	<defs/>
	<path id="SHOP.CO" d="M11.2067 23.8933C3.47336 23.8667 -0.179977 21.4667 0.00668946 15.6533L6.64669 15.6533C6.72669 17.1733 8.00669 18.1067 11.2067 18.1333C14.0334 18.16 15.34 17.36 15.34 16.32C15.34 15.6 14.94 14.8533 12.7534 14.5333L9.87336 14.08C5.63336 13.3867 0.540023 12.88 0.540023 7.14667C0.540023 2.72 4.14002 -1.90735e-06 11.26 -1.90735e-06C17.6867 -1.90735e-06 22.1667 1.78666 22.0334 8.18667L15.4467 8.18667C15.18 6.69333 13.9267 5.76 11.1 5.76C8.64669 5.76 7.63336 6.50666 7.63336 7.52C7.63336 8.16 8.03336 8.93333 9.74002 9.2L12.1134 9.6C16.5667 10.3467 22.6734 10.48 22.6734 16.6133C22.6734 21.4933 18.8867 23.92 11.2067 23.8933ZM40.1513 0.746666L47.5379 0.746666L47.5379 23.1467L40.1513 23.1467L40.1513 15.04L31.4579 15.04L31.4579 23.1467L24.0713 23.1467L24.0713 0.746666L31.4579 0.746666L31.4579 8.85333L40.1513 8.85333L40.1513 0.746666ZM61.7084 23.8933C54.0017 23.8933 49.015 19.12 49.015 11.9467C49.015 4.77333 54.0017 -1.90735e-06 61.7084 -1.90735e-06C69.415 -1.90735e-06 74.4017 4.77333 74.4017 11.9467C74.4017 19.12 69.415 23.8933 61.7084 23.8933ZM61.7084 17.52C64.6417 17.52 67.0684 15.4933 67.0684 11.9467C67.0684 8.4 64.6417 6.37333 61.7084 6.37333C58.775 6.37333 56.3484 8.4 56.3484 11.9467C56.3484 15.4933 58.775 17.52 61.7084 17.52ZM75.8838 23.1467L75.8838 0.746666L88.6038 0.746666C94.7104 0.746666 98.3371 3.46667 98.3371 9.49333C98.3371 15.52 94.7104 18.24 88.6304 18.24L83.2704 18.24L83.2704 23.1467L75.8838 23.1467ZM83.2704 12.1067L87.9638 12.1067C89.7504 12.1067 90.8971 11.2267 90.8971 9.49333C90.8971 7.76 89.7504 6.88 87.9904 6.88L83.2704 6.88L83.2704 12.1067ZM102.033 23.5733C100.033 23.5733 98.3525 21.92 98.3525 19.9467C98.3525 17.9733 100.033 16.32 102.033 16.32C104.033 16.32 105.713 17.9733 105.713 19.9467C105.713 21.92 104.033 23.5733 102.033 23.5733ZM119.758 23.8933C112.211 23.8933 107.171 19.12 107.171 11.9467C107.171 4.77333 112.211 -1.90735e-06 119.758 -1.90735e-06C125.225 -1.90735e-06 130.825 2.4 131.571 9.97333L124.531 9.97333C123.918 7.52 122.185 6.37333 119.758 6.37333C116.825 6.37333 114.505 8.56 114.505 11.9467C114.505 15.3333 116.825 17.52 119.758 17.52C122.185 17.52 123.918 16.3733 124.531 13.8667L131.571 13.8667C130.825 21.4933 125.278 23.8933 119.758 23.8933ZM145.615 23.8933C137.908 23.8933 132.921 19.12 132.921 11.9467C132.921 4.77333 137.908 -1.90735e-06 145.615 -1.90735e-06C153.321 -1.90735e-06 158.308 4.77333 158.308 11.9467C158.308 19.12 153.321 23.8933 145.615 23.8933ZM145.615 17.52C148.548 17.52 150.975 15.4933 150.975 11.9467C150.975 8.4 148.548 6.37333 145.615 6.37333C142.681 6.37333 140.255 8.4 140.255 11.9467C140.255 15.4933 142.681 17.52 145.615 17.52Z" fill="#000000" fill-opacity="1.000000" fill-rule="evenodd"/>
</svg>
