<svg width="20.250000" height="18.750000" viewBox="0 0 20.25 18.75" fill="none" xmlns="http://www.w3.org/2000/svg" xmlns:xlink="http://www.w3.org/1999/xlink">
	<desc>
			Created with Pixso.
	</desc>
	<defs/>
	<path id="Vector" d="M11.25 9L11.25 17.625C11.25 17.9233 11.1316 18.2095 10.9204 18.4205C10.7095 18.6315 10.4233 18.75 10.125 18.75C9.82666 18.75 9.54053 18.6315 9.32959 18.4205C9.11841 18.2095 9 17.9233 9 17.625L9 9C9 8.70166 9.11841 8.41547 9.32959 8.20453C9.54053 7.99353 9.82666 7.875 10.125 7.875C10.4233 7.875 10.7095 7.99353 10.9204 8.20453C11.1316 8.41547 11.25 8.70166 11.25 9ZM16.875 15.375C16.5767 15.375 16.2905 15.4935 16.0796 15.7045C15.8684 15.9155 15.75 16.2017 15.75 16.5L15.75 17.625C15.75 17.9233 15.8684 18.2095 16.0796 18.4205C16.2905 18.6315 16.5767 18.75 16.875 18.75C17.1733 18.75 17.4595 18.6315 17.6704 18.4205C17.8816 18.2095 18 17.9233 18 17.625L18 16.5C18 16.2017 17.8816 15.9155 17.6704 15.7045C17.4595 15.4935 17.1733 15.375 16.875 15.375ZM19.125 11.625L18 11.625L18 1.125C18 0.82666 17.8816 0.540466 17.6704 0.329529C17.4595 0.11853 17.1733 0 16.875 0C16.5767 0 16.2905 0.11853 16.0796 0.329529C15.8684 0.540466 15.75 0.82666 15.75 1.125L15.75 11.625L14.625 11.625C14.3267 11.625 14.0405 11.7435 13.8296 11.9545C13.6184 12.1655 13.5 12.4517 13.5 12.75C13.5 13.0483 13.6184 13.3345 13.8296 13.5455C14.0405 13.7565 14.3267 13.875 14.625 13.875L19.125 13.875C19.4233 13.875 19.7095 13.7565 19.9204 13.5455C20.1316 13.3345 20.25 13.0483 20.25 12.75C20.25 12.4517 20.1316 12.1655 19.9204 11.9545C19.7095 11.7435 19.4233 11.625 19.125 11.625ZM3.375 12.375C3.07666 12.375 2.79053 12.4935 2.57959 12.7045C2.36841 12.9155 2.25 13.2017 2.25 13.5L2.25 17.625C2.25 17.9233 2.36841 18.2095 2.57959 18.4205C2.79053 18.6315 3.07666 18.75 3.375 18.75C3.67334 18.75 3.95947 18.6315 4.17041 18.4205C4.38159 18.2095 4.5 17.9233 4.5 17.625L4.5 13.5C4.5 13.2017 4.38159 12.9155 4.17041 12.7045C3.95947 12.4935 3.67334 12.375 3.375 12.375ZM5.625 8.625L4.5 8.625L4.5 1.125C4.5 0.82666 4.38159 0.540466 4.17041 0.329529C3.95947 0.11853 3.67334 0 3.375 0C3.07666 0 2.79053 0.11853 2.57959 0.329529C2.36841 0.540466 2.25 0.82666 2.25 1.125L2.25 8.625L1.125 8.625C0.82666 8.625 0.540527 8.74353 0.32959 8.95453C0.118408 9.16547 0 9.45166 0 9.75C0 10.0483 0.118408 10.3345 0.32959 10.5455C0.540527 10.7565 0.82666 10.875 1.125 10.875L5.625 10.875C5.92334 10.875 6.20947 10.7565 6.42041 10.5455C6.63159 10.3345 6.75 10.0483 6.75 9.75C6.75 9.45166 6.63159 9.16547 6.42041 8.95453C6.20947 8.74353 5.92334 8.625 5.625 8.625ZM12.375 4.125L11.25 4.125L11.25 1.125C11.25 0.82666 11.1316 0.540466 10.9204 0.329529C10.7095 0.11853 10.4233 0 10.125 0C9.82666 0 9.54053 0.11853 9.32959 0.329529C9.11841 0.540466 9 0.82666 9 1.125L9 4.125L7.875 4.125C7.57666 4.125 7.29053 4.24353 7.07959 4.45453C6.86841 4.66547 6.75 4.95166 6.75 5.25C6.75 5.54834 6.86841 5.83453 7.07959 6.04547C7.29053 6.25647 7.57666 6.375 7.875 6.375L12.375 6.375C12.6733 6.375 12.9595 6.25647 13.1704 6.04547C13.3816 5.83453 13.5 5.54834 13.5 5.25C13.5 4.95166 13.3816 4.66547 13.1704 4.45453C12.9595 4.24353 12.6733 4.125 12.375 4.125Z" fill="#000000" fill-opacity="1.000000" fill-rule="nonzero"/>
</svg>
