<svg width="11.503906" height="6.503784" viewBox="0 0 11.5039 6.50378" fill="none" xmlns="http://www.w3.org/2000/svg" xmlns:xlink="http://www.w3.org/1999/xlink">
	<desc>
			Created with Pixso.
	</desc>
	<defs/>
	<path id="Vector" d="M11.2825 1.2832L6.28247 6.2832C6.21289 6.35309 6.13013 6.40857 6.03882 6.44641C5.94775 6.48425 5.8501 6.50378 5.75122 6.50378C5.65259 6.50378 5.55493 6.48425 5.46362 6.44641C5.37256 6.40857 5.28979 6.35309 5.21997 6.2832L0.219971 1.2832C0.0791016 1.14227 0 0.951172 0 0.751953C0 0.552673 0.0791016 0.361572 0.219971 0.220703C0.36084 0.0797729 0.552002 0.000610352 0.751221 0.000610352C0.950439 0.000610352 1.1416 0.0797729 1.28247 0.220703L5.75195 4.69006L10.2212 0.220032C10.3623 0.0791626 10.5532 0 10.7524 0C10.9519 0 11.1428 0.0791626 11.2837 0.220032C11.4248 0.360962 11.5039 0.552063 11.5039 0.751282C11.5039 0.950562 11.4248 1.14166 11.2837 1.28253L11.2825 1.2832Z" fill="#000000" fill-opacity="1.000000" fill-rule="nonzero"/>
</svg>
