<svg width="20.250000" height="20.250000" viewBox="0 0 20.25 20.25" fill="none" xmlns="http://www.w3.org/2000/svg" xmlns:xlink="http://www.w3.org/1999/xlink">
	<desc>
			Created with Pixso.
	</desc>
	<defs/>
	<path id="Vector" d="M10.125 0C8.12256 0 6.16479 0.593819 4.49976 1.70637C2.83472 2.81892 1.53711 4.40023 0.770752 6.25033C0.00439453 8.10043 -0.196045 10.1362 0.19458 12.1003C0.585205 14.0643 1.54956 15.8685 2.96558 17.2845C4.38159 18.7005 6.18555 19.6648 8.14966 20.0555C10.1138 20.4461 12.1497 20.2456 13.9998 19.4793C15.8499 18.7129 17.4312 17.4152 18.5437 15.7501C19.6562 14.0851 20.25 12.1275 20.25 10.125C20.2471 7.4406 19.1794 4.867 17.2812 2.96883C15.3831 1.07067 12.8093 0.00297546 10.125 0ZM5.58472 16.5534C6.10693 15.8393 6.79028 15.2585 7.5791 14.8581C8.36816 14.4577 9.24023 14.249 10.125 14.249C11.0098 14.249 11.8818 14.4577 12.6709 14.8581C13.4597 15.2585 14.1431 15.8393 14.6653 16.5534C13.3384 17.4945 11.7517 18 10.125 18C8.49829 18 6.91162 17.4945 5.58472 16.5534ZM7.5 9.375C7.5 8.85582 7.65405 8.3483 7.94238 7.91663C8.23096 7.48495 8.64087 7.1485 9.12036 6.94981C9.6001 6.75114 10.1279 6.69915 10.6372 6.80044C11.1462 6.90173 11.614 7.15173 11.9812 7.51884C12.3484 7.88596 12.5984 8.35368 12.6995 8.86288C12.8008 9.37209 12.7488 9.89989 12.5503 10.3795C12.3516 10.8592 12.0151 11.2692 11.5835 11.5576C11.1516 11.846 10.6443 12 10.125 12C9.42871 12 8.76123 11.7234 8.2688 11.2312C7.77661 10.7389 7.5 10.0712 7.5 9.375ZM16.3125 14.9944C15.5833 14.0669 14.6538 13.3164 13.5938 12.7988C14.2693 12.1146 14.7275 11.2458 14.9106 10.3019C15.094 9.35788 14.9939 8.38083 14.623 7.49361C14.2522 6.6064 13.6274 5.84864 12.8271 5.31568C12.0266 4.78271 11.0867 4.49834 10.125 4.49834C9.16333 4.49834 8.22339 4.78271 7.42285 5.31568C6.62256 5.84864 5.9978 6.6064 5.62695 7.49361C5.2561 8.38083 5.15601 9.35788 5.33936 10.3019C5.52246 11.2458 5.98071 12.1146 6.65625 12.7988C5.59619 13.3164 4.66675 14.0669 3.9375 14.9944C3.02173 13.8333 2.45117 12.4379 2.2915 10.9677C2.13159 9.49754 2.38916 8.01211 3.03418 6.68144C3.67944 5.35078 4.68628 4.22867 5.93945 3.44354C7.19263 2.65842 8.6416 2.24203 10.1204 2.24203C11.5991 2.24203 13.0481 2.65842 14.3013 3.44354C15.5544 4.22867 16.5613 5.35078 17.2063 6.68144C17.8516 8.01211 18.1089 9.49754 17.9492 10.9677C17.7896 12.4379 17.219 13.8333 16.3032 14.9944L16.3125 14.9944Z" fill="#000000" fill-opacity="1.000000" fill-rule="nonzero"/>
</svg>
