<svg width="20.250000" height="5.250000" viewBox="0 0 20.25 5.25" fill="none" xmlns="http://www.w3.org/2000/svg" xmlns:xlink="http://www.w3.org/1999/xlink">
	<desc>
			Created with Pixso.
	</desc>
	<defs/>
	<path id="Vector" d="M12.75 2.625C12.75 3.14417 12.5959 3.65173 12.3076 4.08337C12.0193 4.51501 11.6091 4.85156 11.1296 5.05017C10.6499 5.2489 10.1221 5.3009 9.61279 5.19958C9.10376 5.09827 8.63599 4.84827 8.2688 4.4812C7.90186 4.11401 7.65161 3.64636 7.55054 3.13708C7.44922 2.62793 7.50122 2.1001 7.69971 1.62048C7.89844 1.14075 8.23486 0.730835 8.66675 0.442383C9.09839 0.153931 9.60571 0 10.125 0C10.8213 0 11.4888 0.276611 11.9812 0.768799C12.4734 1.26111 12.75 1.92883 12.75 2.625ZM2.625 0C2.10571 0 1.59839 0.153931 1.16675 0.442383C0.734863 0.730835 0.398438 1.14075 0.199707 1.62048C0.0012207 2.1001 -0.0507812 2.62793 0.0505371 3.13708C0.151611 3.64636 0.401611 4.11401 0.768799 4.4812C1.13599 4.84827 1.60376 5.09827 2.11279 5.19958C2.62207 5.3009 3.1499 5.2489 3.62964 5.05017C4.10913 4.85156 4.51929 4.51501 4.80762 4.08337C5.09595 3.65173 5.25 3.14417 5.25 2.625C5.25 1.92883 4.97339 1.26111 4.4812 0.768799C3.98877 0.276611 3.32129 0 2.625 0ZM17.625 0C17.1057 0 16.5984 0.153931 16.1667 0.442383C15.7349 0.730835 15.3984 1.14075 15.1997 1.62048C15.0012 2.1001 14.9492 2.62793 15.0505 3.13708C15.1516 3.64636 15.4019 4.11401 15.7688 4.4812C16.136 4.84827 16.6038 5.09827 17.1128 5.19958C17.6221 5.3009 18.1499 5.2489 18.6296 5.05017C19.1091 4.85156 19.5193 4.51501 19.8076 4.08337C20.0959 3.65173 20.25 3.14417 20.25 2.625C20.25 2.28027 20.1821 1.93896 20.0503 1.62048C19.9182 1.302 19.7249 1.01257 19.4812 0.768799C19.2373 0.525146 18.948 0.331787 18.6296 0.199829C18.311 0.0678711 17.9697 0 17.625 0Z" fill="#000000" fill-opacity="0.400000" fill-rule="nonzero"/>
</svg>
