<svg width="6.503662" height="11.503845" viewBox="0 0 6.50366 11.5038" fill="none" xmlns="http://www.w3.org/2000/svg" xmlns:xlink="http://www.w3.org/1999/xlink">
	<desc>
			Created with Pixso.
	</desc>
	<defs/>
	<path id="Vector" d="M1.2832 0.221298L6.2832 5.2213C6.35303 5.29097 6.40869 5.37376 6.44653 5.46494C6.48438 5.55609 6.50366 5.65384 6.50366 5.75255C6.50366 5.85126 6.48438 5.94899 6.44653 6.04016C6.40869 6.13132 6.35303 6.21411 6.2832 6.2838L1.2832 11.2838C1.14233 11.4247 0.951172 11.5038 0.751953 11.5038C0.552734 11.5038 0.361572 11.4247 0.220703 11.2838C0.079834 11.1429 0.000732422 10.9518 0.000732422 10.7525C0.000732422 10.5533 0.079834 10.3622 0.220703 10.2213L4.68994 5.75192L0.219971 1.28255C0.0791016 1.14165 0 0.950546 0 0.751297C0 0.552032 0.0791016 0.360947 0.219971 0.220047C0.36084 0.0791473 0.552002 0 0.751221 0C0.950439 0 1.1416 0.0791473 1.28247 0.220047L1.2832 0.221298Z" fill="#000000" fill-opacity="0.600000" fill-rule="nonzero"/>
</svg>
