<svg width="19.500000" height="19.500000" viewBox="0 0 19.5 19.5" fill="none" xmlns="http://www.w3.org/2000/svg" xmlns:xlink="http://www.w3.org/1999/xlink">
	<desc>
			Created with Pixso.
	</desc>
	<defs/>
	<path id="Vector" d="M9.75 0C7.82153 0 5.93652 0.571777 4.33325 1.64319C2.72974 2.71448 1.48022 4.2373 0.742188 6.0188C0.00415039 7.80042 -0.188965 9.76086 0.187256 11.6521C0.563477 13.5435 1.49219 15.2808 2.85571 16.6443C4.21924 18.0078 5.95654 18.9364 7.8479 19.3126C9.73926 19.6888 11.6997 19.4957 13.4812 18.7578C15.2627 18.0199 16.7854 16.7701 17.8569 15.1667C18.9282 13.5635 19.5 11.6783 19.5 9.75C19.4973 7.16492 18.4692 4.68665 16.6414 2.85876C14.8135 1.03088 12.335 0.00268555 9.75 0ZM14.0305 8.03064L8.78052 13.2806C8.71094 13.3503 8.62817 13.4056 8.53711 13.4435C8.44604 13.4812 8.34863 13.5006 8.25 13.5006C8.15137 13.5006 8.05396 13.4812 7.96289 13.4435C7.87183 13.4056 7.78906 13.3503 7.71948 13.2806L5.46948 11.0306C5.32861 10.8899 5.24951 10.699 5.24951 10.5C5.24951 10.301 5.32861 10.1101 5.46948 9.96936C5.61011 9.82861 5.80103 9.74963 6 9.74963C6.19897 9.74963 6.38989 9.82861 6.53052 9.96936L8.25 11.6897L12.9695 6.96936C13.0391 6.89966 13.1218 6.84436 13.2129 6.80676C13.304 6.76904 13.4014 6.74963 13.5 6.74963C13.5986 6.74963 13.696 6.76904 13.7871 6.80676C13.8782 6.84436 13.9609 6.89966 14.0305 6.96936C14.1003 7.03906 14.1555 7.12183 14.1934 7.21277C14.231 7.30383 14.2505 7.40149 14.2505 7.5C14.2505 7.59851 14.231 7.69617 14.1934 7.78723C14.1555 7.87817 14.1003 7.96094 14.0305 8.03064Z" fill="#01AB31" fill-opacity="1.000000" fill-rule="nonzero"/>
</svg>
