<svg width="22.125000" height="20.250000" viewBox="0 0 22.125 20.25" fill="none" xmlns="http://www.w3.org/2000/svg" xmlns:xlink="http://www.w3.org/1999/xlink">
	<desc>
			Created with Pixso.
	</desc>
	<defs/>
	<path id="Vector" d="M9.375 18.375C9.375 18.7458 9.26514 19.1084 9.05908 19.4167C8.85303 19.725 8.56006 19.9654 8.21753 20.1073C7.875 20.2492 7.4978 20.2863 7.13428 20.214C6.77051 20.1416 6.43628 19.9631 6.17407 19.7008C5.91187 19.4386 5.7334 19.1045 5.66113 18.7408C5.58862 18.3771 5.62573 18.0001 5.76782 17.6575C5.90967 17.3149 6.1499 17.022 6.45825 16.816C6.7666 16.61 7.12915 16.5 7.5 16.5C7.99731 16.5 8.47412 16.6975 8.82593 17.0492C9.17749 17.4008 9.375 17.8777 9.375 18.375ZM17.25 16.5C16.8792 16.5 16.5166 16.61 16.2083 16.816C15.8999 17.022 15.6597 17.3149 15.5178 17.6575C15.3757 18.0001 15.3386 18.3771 15.4111 18.7408C15.4834 19.1045 15.6619 19.4386 15.9241 19.7008C16.1863 19.9631 16.5205 20.1416 16.8843 20.214C17.2478 20.2863 17.625 20.2492 17.9675 20.1073C18.3101 19.9654 18.603 19.725 18.8091 19.4167C19.0151 19.1084 19.125 18.7458 19.125 18.375C19.125 17.8777 18.9275 17.4008 18.5759 17.0492C18.2241 16.6975 17.7473 16.5 17.25 16.5ZM22.0752 5.20594L19.5168 13.5216C19.3535 14.0593 19.0212 14.5301 18.5691 14.864C18.1169 15.1979 17.5693 15.3771 17.0071 15.375L7.77466 15.375C7.20459 15.3732 6.65039 15.1866 6.19531 14.8433C5.74023 14.5001 5.40845 14.0186 5.25 13.4709L2.04468 2.25L1.125 2.25C0.82666 2.25 0.540527 2.13148 0.32959 1.92049C0.118408 1.70952 0 1.42337 0 1.125C0 0.82663 0.118408 0.540482 0.32959 0.329506C0.540527 0.11853 0.82666 0 1.125 0L2.3269 0C2.73413 0.00125885 3.12988 0.134514 3.45483 0.379776C3.78003 0.625046 4.01685 0.969093 4.12964 1.36031L4.81323 3.75L21 3.75C21.176 3.74998 21.3496 3.7913 21.5068 3.87061C21.6641 3.94992 21.8005 4.06501 21.905 4.20663C22.0095 4.34826 22.0796 4.51246 22.1091 4.68602C22.1387 4.85958 22.1272 5.03767 22.0752 5.20594ZM19.4766 6L5.45532 6L7.41382 12.8531C7.43628 12.9315 7.48364 13.0005 7.54858 13.0495C7.61377 13.0986 7.69312 13.1251 7.77466 13.125L17.0071 13.125C17.0874 13.1252 17.1655 13.0996 17.2302 13.052C17.2949 13.0044 17.3425 12.9373 17.3662 12.8606L19.4766 6Z" fill="#000000" fill-opacity="1.000000" fill-rule="nonzero"/>
</svg>
